<?xml version="1.0" encoding="UTF-8"?>
<svg width="24px" height="24px" viewBox="0 0 24 24" version="1.1" xmlns="http://www.w3.org/2000/svg" xmlns:xlink="http://www.w3.org/1999/xlink">
    <!-- Generator: Sketch 45.2 (43514) - http://www.bohemiancoding.com/sketch -->
    <title>icon-patients</title>
    <desc>Created with Sketch.</desc>
    <defs></defs>
    <g id="icons" stroke="none" stroke-width="1" fill="none" fill-rule="evenodd">
        <g id="icon-patients" fill-rule="nonzero" fill="#FFFFFF">
            <path d="M20.8800454,13.568495 C20.3146192,12.8521426 19.5600896,12.2823141 18.7096252,11.9218945 C19.6653484,11.1570152 20.2363547,9.94632821 20.2363547,8.61797105 C20.2363547,6.41320787 18.6332208,4.60834851 16.6314674,4.51585062 C15.7484048,3.00406231 14.2003088,2 12.4416236,2 C10.6820084,2 9.13386465,3.00486764 8.25082584,4.51746128 C6.2629989,4.627115 4.67670064,6.42473559 4.67670064,8.61866133 C4.67670064,9.94170332 5.27193509,11.1812211 6.23605226,11.945134 C5.39863196,12.3109379 4.65621643,12.8807893 4.10104423,13.5926549 C3.38099679,14.5157241 3,15.6149764 3,16.773478 L3,19.1508118 C3,19.3368637 3.15649317,19.4878539 3.34930468,19.4878539 L5.20859857,19.4878539 L5.20859857,21.6629579 C5.20859857,21.8490098 5.36509175,22 5.55790326,22 L19.4420967,22 C19.6349178,22 19.7914014,21.8490006 19.7914014,21.6629579 L19.7914014,19.4878539 L21.6506953,19.4878539 C21.8435164,19.4878539 22,19.3368545 22,19.1508118 L22,16.773478 C21.9981371,15.6032416 21.6115631,14.4950156 20.8803316,13.5682649 L20.8800454,13.568495 Z M5.20640469,18.448104 L5.20640469,18.8112157 L3.69736935,18.8121145 L3.69736935,16.7718227 C3.69736935,14.7234545 5.06110749,12.9465056 7.09073749,12.3514819 C7.22580689,12.3119333 7.32268362,12.1977858 7.33664341,12.0620693 C7.35061583,11.9263505 7.27888938,11.7960343 7.15499925,11.7322062 C6.07350921,11.1704541 5.37489984,9.94807831 5.37489984,8.61788039 C5.37489984,6.93441876 6.46383001,5.53139602 7.89548321,5.24193744 C7.62441915,5.91155775 7.473518,6.65216214 7.473518,7.43052499 C7.473518,8.47404847 7.74458206,9.48699243 8.25785582,10.3605453 C8.61276445,10.9645427 9.07011798,11.4822548 9.60387595,11.8885092 C9.58897184,11.9253611 9.57965736,11.9640077 9.57779256,12.004456 C8.43668608,12.4889195 7.42320649,13.2573883 6.66970229,14.2236001 C5.71211908,15.4477706 5.2063093,16.9092603 5.2063093,18.4479006 L5.20640469,18.448104 Z M19.091552,21.3233618 L5.90510944,21.3233618 L5.90510944,18.448104 C5.90510944,15.6276085 7.78302751,13.1810163 10.5776081,12.3614206 C10.7126775,12.321872 10.8095542,12.2077245 10.823514,12.072008 C10.8374866,11.9362892 10.76576,11.805973 10.6409398,11.7421449 C9.14027461,10.9628846 8.17067272,9.27047235 8.17067272,7.42971828 C8.17067272,4.80710393 10.0858391,2.67320978 12.4396872,2.67320978 C14.7935353,2.67320978 16.7087017,4.80696587 16.7087017,7.42971828 C16.7087017,9.25160462 15.7539086,10.936815 14.2756353,11.7241975 C14.1517452,11.7898112 14.0818819,11.9210363 14.096786,12.0567527 C14.1126215,12.1924715 14.2104292,12.3048174 14.3464358,12.3434732 C17.1391086,13.1299354 19.0897588,15.6411841 19.0897588,18.4499447 L19.091552,21.3233618 Z M21.2992206,18.8121131 L19.7892552,18.8121131 L19.7892552,18.4490013 C19.7892552,16.8958651 19.2750753,15.4244123 18.3025641,14.1922576 C17.5378044,13.2233536 16.5122107,12.4575539 15.3589425,11.9793951 C15.3524219,11.9362524 15.3375177,11.8958064 15.3151625,11.8589545 C15.8386665,11.4527001 16.2885799,10.9367828 16.6360484,10.3381695 C17.1409281,9.46993186 17.4073421,8.46416685 17.4073421,7.42954801 C17.4073421,6.64939042 17.2555062,5.90696829 16.9835169,5.23555324 C18.4310757,5.51058491 19.53677,6.92170698 19.53677,8.61770874 C19.53677,9.93446916 18.8483909,11.1515067 17.783665,11.7186891 C17.6597748,11.7843027 17.5899115,11.9155278 17.6048156,12.0512443 C17.6206514,12.1869631 17.7184589,12.2993089 17.8544655,12.3379647 C19.8823547,12.9096109 21.2991037,14.7323256 21.2991037,16.7725714 L21.2992206,18.8121131 Z" id="patients-icon"></path>
        </g>
    </g>
</svg>