<?xml version="1.0" encoding="UTF-8"?>
<svg width="24px" height="24px" viewBox="0 0 24 24" version="1.1" xmlns="http://www.w3.org/2000/svg" xmlns:xlink="http://www.w3.org/1999/xlink">
    <!-- Generator: Sketch 45.2 (43514) - http://www.bohemiancoding.com/sketch -->
    <title>icon-home</title>
    <desc>Created with Sketch.</desc>
    <defs></defs>
    <g id="icons" stroke="none" stroke-width="1" fill-rule="evenodd">
        <g id="icon-home" fill-rule="nonzero" fill="#FFFFFF">
            <path d="M12.4680266,4.00202321 C12.4080781,4.00845226 12.3618042,4.02773886 12.3334078,4.04488262 L2.10237724,12.273891 C1.99299945,12.3499654 1.96355293,12.5535401 2.05189518,12.6681976 C2.14024013,12.7828469 2.32638296,12.8010632 2.4389243,12.711057 L12.5016813,4.61919883 L22.5644383,12.711057 C22.6769715,12.8010604 22.8547034,12.7828469 22.9430402,12.6681976 C23.0313852,12.5535483 23.0166606,12.3467451 22.9009719,12.273891 L12.6699413,4.04488262 C12.6026319,4.00309572 12.5279616,3.99559361 12.4680131,4.00202321 L12.4680266,4.00202321 Z M5.50150251,10.8765368 L4.96302722,11.305131 L4.96302722,20.7256997 C4.96302722,20.8767788 5.08292143,21 5.23226486,21 L10.3477801,21 C10.4960708,21 10.6170178,20.8767788 10.6170178,20.7256997 L10.6170178,15.5139944 L14.3863448,15.5139944 L14.3863448,20.7256997 C14.3863448,20.8767788 14.506239,21 14.6555824,21 L19.7710977,21 C19.9193884,21 20.0403353,20.8767788 20.0403353,20.7256997 L20.0403353,11.305131 L19.50186,10.8765368 L19.50186,20.4512623 L14.9248201,20.4512623 L14.9248201,15.239557 C14.9248201,15.0874054 14.8038731,14.9652567 14.6555824,14.9652567 L10.3477801,14.9652567 C10.1984367,14.9652567 10.0785425,15.0874054 10.0785425,15.239557 L10.0785425,20.4512623 L5.50150251,20.4512623 L5.50150251,10.8765368 Z" id="home-icon"></path>
        </g>
    </g>
</svg>