<?xml version="1.0" encoding="UTF-8"?>
<svg width="24px" height="24px" viewBox="0 0 24 24" version="1.1" xmlns="http://www.w3.org/2000/svg" xmlns:xlink="http://www.w3.org/1999/xlink">
    <!-- Generator: Sketch 45.2 (43514) - http://www.bohemiancoding.com/sketch -->
    <title>icon-new-patient</title>
    <desc>Created with Sketch.</desc>
    <defs></defs>
    <g id="icons" stroke="none" stroke-width="1" fill="none" fill-rule="evenodd">
        <g id="icon-new-patient" fill-rule="nonzero" fill="#FFFFFF">
            <path d="M17.7223031,22.8500271 L6.31610032,22.8500271 C5.70174469,22.8500271 5.19706409,22.3123529 5.19706409,21.6578336 L5.19706409,18.4100081 C5.19706409,16.1196579 5.89880878,13.9698957 7.17121457,12.3579012 C7.80697877,11.5637286 8.55329539,10.9320175 9.36471511,10.4883801 C8.2902508,9.2733784 7.56622015,7.42657204 7.56622015,5.83841392 C7.56622015,3.2439861 9.5626566,1.11810699 11.9968719,1.11810699 C14.4320962,1.11810699 16.4275236,3.24506108 16.4275236,5.83841392 C16.4275236,7.42769376 15.703493,9.27342514 14.6290287,10.4883801 C15.4404484,10.9320175 16.2081736,11.5637286 16.8225292,12.3579012 C18.094935,13.9699892 18.7966797,16.1207796 18.7966797,18.4100081 L18.7966797,21.6578336 C18.8412341,22.3123529 18.3365491,22.8500271 17.7222154,22.8500271 L17.7223031,22.8500271 Z M12.0192017,1.81791545 C9.93537621,1.81791545 8.24660014,3.6171425 8.24660014,5.837152 C8.24660014,7.37988076 9.05801986,9.27216321 10.1770561,10.3237688 L10.5720617,10.6980469 L10.0673811,10.9080035 C9.16769489,11.2822816 8.33486661,11.9358661 7.67690418,12.8012674 C6.49276485,14.2965104 5.85612326,16.282783 5.85612326,18.4098305 L5.85612326,21.657656 C5.85612326,21.9378972 6.07547331,22.1487791 6.31710933,22.1487791 L17.7233121,22.1487791 C17.9863567,22.1487791 18.1842982,21.915089 18.1842982,21.657656 L18.1834412,18.4098305 C18.1834412,16.2828765 17.525391,14.2964169 16.3626603,12.8012674 C15.6823241,11.9596091 14.8709044,11.3060245 13.9721834,10.9080035 L13.4675028,10.6980469 L13.8625084,10.3237688 C14.9815446,9.27216321 15.7929643,7.37880578 15.7929643,5.837152 C15.7921075,3.61709576 14.1032889,1.81791545 12.0194853,1.81791545 L12.0192017,1.81791545 Z" id="Shape"></path>
            <polygon id="Shape" points="14.2127023 16.7740838 12.3482268 16.7740838 12.3482268 14.7877177 11.6901766 14.7877177 11.6901766 16.7740838 9.82570118 16.7740838 9.82570118 17.4751541 11.6901766 17.4751541 11.6901766 19.4615203 12.3482268 19.4615203 12.3482268 17.4751541 14.2127023 17.4751541"></polygon>
        </g>
    </g>
</svg>