<?xml version="1.0" encoding="UTF-8"?>
<svg width="24px" height="24px" viewBox="0 0 24 24" version="1.1" xmlns="http://www.w3.org/2000/svg" xmlns:xlink="http://www.w3.org/1999/xlink">
    <!-- Generator: Sketch 45.2 (43514) - http://www.bohemiancoding.com/sketch -->
    <title>icon-edit</title>
    <desc>Created with Sketch.</desc>
    <defs></defs>
    <g id="icons" stroke="none" stroke-width="1" fill="none" fill-rule="evenodd">
        <g id="icon-edit" fill-rule="nonzero" fill="#99CC33">
            <path d="M20.5978098,5.96155756 L18.0330373,3.40016838 L18.034364,3.40149338 C17.495683,2.86616887 16.6252812,2.86616887 16.0878909,3.40149338 L4.92670779,14.5506667 C4.76615985,14.7149785 4.64939863,14.9163808 4.58703881,15.1376885 L3.01474505,20.5652229 L3.0134183,20.5652229 C2.97892152,20.6844794 3.01209155,20.8130136 3.09966365,20.9004681 C3.18723371,20.9879227 3.31593769,21.021051 3.43535171,20.9865997 L8.87005545,19.4163801 L8.87005545,19.4150551 C9.09031041,19.3527775 9.29331697,19.2361703 9.45785263,19.0758342 L20.5979763,7.90528993 C21.1340079,7.36864246 21.1340079,6.4993889 20.5979763,5.96138455 L20.5978098,5.96155756 Z M3.84261822,20.134546 L5.20129416,15.3854534 C5.21190881,15.4053297 5.22385022,15.4252067 5.23844715,15.4437587 L8.5979772,18.7776556 L3.84261822,20.134546 Z M20.1467294,7.40969158 L9.15775848,18.3705973 L5.73457446,14.9546429 C5.68813492,14.9109139 5.62975601,14.8817646 5.56739278,14.8698376 L16.5696108,3.88213344 C16.84692,3.62109278 17.2781264,3.62109278 17.5554321,3.88213344 L20.1202047,6.44352261 C20.389552,6.71516393 20.389552,7.1551063 20.1202047,7.42672047 L20.1467294,7.40969158 Z" id="Shape"></path>
        </g>
    </g>
</svg>