<?xml version="1.0" encoding="UTF-8"?>
<svg width="24px" height="24px" viewBox="0 0 24 24" version="1.1" xmlns="http://www.w3.org/2000/svg" xmlns:xlink="http://www.w3.org/1999/xlink">
    <!-- Generator: Sketch 45.2 (43514) - http://www.bohemiancoding.com/sketch -->
    <title>icon-search</title>
    <desc>Created with Sketch.</desc>
    <defs></defs>
    <g id="icons" stroke="none" stroke-width="1" fill="none" fill-rule="evenodd">
        <g id="icon-search" fill-rule="nonzero" fill="#061726">
            <path d="M21.8083078,20.8838171 L16.4896266,15.5653095 C17.7618489,14.0778309 18.4571073,12.2065502 18.4571073,10.2280671 C18.4571073,8.02999465 17.6010074,5.96393723 16.0472092,4.40916585 C14.493302,2.85615903 12.4271336,2 10.2289893,2 C8.0308451,2 5.96472023,2.85607189 4.40989808,4.40981939 C2.85599092,5.96452542 2,8.03064819 2,10.2287207 C2,12.4267931 2.85609984,14.4928505 4.40989808,16.0476219 C5.96380524,17.602328 8.02997369,18.4574413 10.2289893,18.4574413 C12.207537,18.4574413 14.0780292,17.7622056 15.566406,16.4900249 L20.8850872,21.8085324 C21.0127364,21.9361775 21.180388,22 21.3471768,22 C21.5139656,22 21.6816259,21.9361775 21.8092664,21.8085324 C22.0637195,21.553238 22.0637195,21.1388283 21.8084154,20.8835339 L21.8083078,20.8838171 Z M10.2289458,17.1505794 C8.37973787,17.1505794 6.64198394,16.4306617 5.33399008,15.1227323 C4.026018,13.8148029 3.30607675,12.0772364 3.30607675,10.2279364 C3.30607675,8.37878888 4.026018,6.64109169 5.33399008,5.33314054 C6.64111252,4.02606077 8.37958537,3.30529342 10.2289458,3.30529342 C12.0773041,3.30529342 13.8159076,4.02521117 15.1239015,5.33314054 C16.4310239,6.6402203 17.1518148,8.37863639 17.1518148,10.227065 C17.1518148,12.0762126 16.4318735,13.8139097 15.1239015,15.1218609 C13.8159294,16.4306399 12.0774348,17.1505576 10.2289458,17.1505576 L10.2289458,17.1505794 Z" id="Shape"></path>
        </g>
    </g>
</svg>